<?xml version="1.0" standalone="no"?>
<svg xmlns="http://www.w3.org/2000/svg" viewBox="0 0 152.368 36" width="152.368" height="36"><g fill="#e39401" color="#e39401" transform="translate(0 3.9999999999999982) scale(0.2800001)"><svg width="100.0" height="100.0" x="0.0" y="0.0" viewBox="0 0 100 100"><path d="M83.75,5c-0.38,5.659-2.631,11.218-6.957,15.543S66.909,27.12,61.25,27.5c0.38-5.659,2.631-11.218,6.957-15.543  S78.091,5.38,83.75,5z M72.5,38.75C56.011,30.505,38.75,50,44.375,78.125C27.5,66.875,33.125,38.75,50,33.125  c-16.875,0-33.75,9.485-33.75,28.125S31.36,95,50,95s33.75-15.11,33.75-33.75C83.75,55.625,83.75,44.375,72.5,38.75z M50,27.647  h5.625l-11.25-16.875l-11.25,5.625L50,27.647z"></path></svg></g><path fill="#800707" fill-rule="nonzero" d="M2.63 9.60L2.63 9.60Q2.63 10.30 2.97 10.90Q3.32 11.51 3.88 11.96Q4.44 12.41 5.17 12.66Q5.89 12.91 6.66 12.91L6.66 12.91Q6.89 12.91 7.14 12.87Q7.38 12.83 7.58 12.73Q7.78 12.62 7.91 12.45Q8.04 12.28 8.04 12.02L8.04 12.02Q8.04 11.53 7.69 11.05Q7.35 10.57 6.79 10.10Q6.22 9.62 5.50 9.15Q4.77 8.67 4.02 8.20Q3.27 7.73 2.54 7.26Q1.82 6.79 1.25 6.31Q0.69 5.84 0.35 5.35Q0 4.86 0 4.37L0 4.37Q0 3.90 0.24 3.50Q0.48 3.09 0.88 2.77Q1.28 2.44 1.80 2.18Q2.33 1.92 2.91 1.75Q3.48 1.57 4.06 1.48Q4.64 1.39 5.17 1.39L5.17 1.39Q5.55 1.39 6.02 1.41Q6.48 1.43 6.88 1.52Q7.29 1.61 7.56 1.78Q7.83 1.96 7.83 2.29L7.83 2.29Q7.83 2.39 7.79 2.55Q7.76 2.71 7.59 3.07L7.59 3.07Q7.43 3.41 7.21 3.58Q7.00 3.75 6.66 3.75L6.66 3.75Q6.18 3.75 5.64 3.64Q5.11 3.53 4.57 3.53L4.57 3.53Q4.28 3.53 3.98 3.56Q3.68 3.59 3.43 3.66Q3.19 3.74 3.04 3.88Q2.88 4.03 2.88 4.25L2.88 4.25Q2.88 4.48 3.21 4.76Q3.53 5.04 4.06 5.38Q4.59 5.72 5.27 6.12Q5.95 6.53 6.66 6.99Q7.37 7.45 8.05 7.97Q8.73 8.50 9.26 9.08Q9.80 9.66 10.12 10.30Q10.44 10.95 10.44 11.64L10.44 11.64Q10.44 12.48 10.05 13.13Q9.67 13.77 9.06 14.20Q8.45 14.64 7.71 14.85Q6.97 15.07 6.27 15.07L6.27 15.07Q5.55 15.07 4.82 14.90Q4.09 14.73 3.41 14.42Q2.73 14.11 2.14 13.67Q1.55 13.23 1.11 12.69Q0.68 12.14 0.43 11.51Q0.18 10.88 0.18 10.18L0.18 10.18Q0.18 9.89 0.22 9.59Q0.26 9.29 0.36 9.06Q0.47 8.84 0.66 8.69Q0.84 8.54 1.14 8.54L1.14 8.54Q1.23 8.54 1.35 8.56Q1.46 8.58 1.76 8.67L1.76 8.67Q2.10 8.78 2.36 9.01Q2.63 9.23 2.63 9.60ZM18.87 9.39L18.87 9.39Q18.87 7.54 19.31 6.54Q19.76 5.54 20.59 5.54L20.59 5.54Q21.91 5.54 21.91 7.83L21.91 7.83Q21.91 8.64 21.83 9.35Q21.74 10.07 21.57 10.73L21.57 10.73Q21.55 10.83 21.54 10.91Q21.53 10.99 21.53 11.06L21.53 11.06Q21.53 11.31 21.62 11.50L21.62 11.50Q22.21 12.98 23.79 12.98L23.79 12.98Q24.35 12.98 24.84 12.74Q25.34 12.49 25.70 12.06Q26.06 11.64 26.27 11.06Q26.47 10.49 26.47 9.82L26.47 9.82Q26.47 9.07 26.30 8.57Q26.12 8.07 25.91 7.72Q25.70 7.36 25.52 7.06Q25.35 6.76 25.35 6.39L25.35 6.39Q25.35 6.21 25.51 6.02Q25.66 5.82 25.90 5.66Q26.14 5.50 26.43 5.39Q26.72 5.29 26.98 5.29L26.98 5.29Q27.32 5.29 27.65 5.66Q27.98 6.04 28.25 6.64Q28.51 7.24 28.67 8.02Q28.83 8.79 28.83 9.57L28.83 9.57Q28.83 10.71 28.41 11.72Q27.98 12.73 27.26 13.49Q26.53 14.25 25.56 14.70Q24.60 15.14 23.52 15.14L23.52 15.14Q22.61 15.14 21.90 14.82Q21.19 14.50 20.59 13.69L20.59 13.69Q20.50 13.54 20.40 13.48Q20.31 13.42 20.21 13.42L20.21 13.42Q20.10 13.42 20.00 13.48Q19.91 13.54 19.80 13.69L19.80 13.69Q19.01 14.73 18.10 15.18Q17.19 15.62 16.10 15.62L16.10 15.62Q14.89 15.62 13.93 14.96Q12.96 14.30 12.28 13.08Q11.60 11.86 11.24 10.12Q10.88 8.38 10.88 6.22L10.88 6.22Q10.88 5.34 10.95 4.76Q11.02 4.18 11.20 3.85Q11.39 3.52 11.70 3.38Q12 3.25 12.48 3.25L12.48 3.25Q12.98 3.25 13.21 3.44Q13.44 3.63 13.44 4.10L13.44 4.10Q13.44 4.46 13.37 4.92Q13.30 5.37 13.30 5.70L13.30 5.70Q13.30 7.39 13.54 8.82Q13.78 10.25 14.21 11.29Q14.64 12.32 15.23 12.89Q15.82 13.46 16.54 13.46L16.54 13.46Q18.13 13.46 18.89 11.84L18.89 11.84Q18.96 11.71 18.98 11.60Q19.01 11.48 19.01 11.36L19.01 11.36Q19.01 11.29 19.01 11.21Q19.01 11.13 18.98 11.04L18.98 11.04Q18.93 10.59 18.90 10.19Q18.87 9.79 18.87 9.39ZM31.77 2.45L31.77 2.45Q31.43 2.45 31.13 2.35Q30.83 2.25 30.62 2.07Q30.40 1.89 30.27 1.64Q30.14 1.39 30.14 1.10L30.14 1.10Q30.14 0.61 30.53 0.30Q30.93 0 31.58 0L31.58 0Q31.89 0 32.17 0.11Q32.45 0.22 32.67 0.41Q32.88 0.60 33.01 0.85Q33.14 1.10 33.14 1.37L33.14 1.37Q33.14 1.88 32.77 2.16Q32.40 2.45 31.77 2.45ZM30.16 6.02L30.16 6.02Q30.16 5.61 30.52 5.35Q30.88 5.09 31.46 5.09L31.46 5.09Q32.52 5.09 32.59 5.81L32.59 5.81Q32.64 6.32 32.69 6.95Q32.74 7.58 32.79 8.29Q32.85 9 32.89 9.76Q32.93 10.51 32.96 11.24Q33 11.98 33.02 12.66Q33.05 13.34 33.05 13.90L33.05 13.90Q33.05 14.48 32.63 14.78Q32.21 15.07 31.42 15.07L31.42 15.07Q31.05 15.07 30.85 14.90Q30.64 14.73 30.64 14.40L30.64 14.40Q30.64 12.79 30.57 11.37Q30.49 9.96 30.40 8.86Q30.32 7.76 30.24 7.03Q30.16 6.29 30.16 6.02ZM36.26 14.91L36.26 14.91Q36.18 13.35 35.99 12.03Q35.81 10.71 35.62 9.73Q35.43 8.74 35.28 8.13Q35.13 7.52 35.13 7.37L35.13 7.37Q35.13 7.15 35.30 6.94Q35.47 6.73 35.73 6.57Q35.99 6.41 36.29 6.32Q36.59 6.22 36.83 6.22L36.83 6.22Q37.03 6.22 37.18 6.29Q37.32 6.36 37.38 6.53L37.38 6.53Q37.44 6.73 37.49 6.94Q37.55 7.16 37.61 7.46L37.61 7.46Q37.68 7.90 37.79 7.90L37.79 7.90Q37.92 7.90 38.09 7.51L38.09 7.51Q38.32 6.97 38.59 6.62Q38.86 6.27 39.17 6.06Q39.48 5.86 39.81 5.78Q40.15 5.70 40.51 5.70L40.51 5.70Q41.61 5.70 42.38 6.56Q43.15 7.43 43.58 9.07L43.58 9.07Q43.64 9.26 43.69 9.31Q43.73 9.36 43.79 9.36L43.79 9.36Q43.85 9.36 43.92 9.31Q43.98 9.26 44.04 9.09L44.04 9.09Q44.32 8.33 44.70 7.80Q45.07 7.27 45.47 6.93Q45.88 6.60 46.30 6.45Q46.72 6.29 47.11 6.29L47.11 6.29Q47.82 6.29 48.40 6.81Q48.98 7.34 49.44 8.42Q49.89 9.50 50.22 11.16Q50.55 12.82 50.78 15.09L50.78 15.09Q50.78 15.73 50.39 15.98Q50.00 16.23 49.34 16.23L49.34 16.23Q48.90 16.23 48.66 16.04Q48.41 15.86 48.38 15.55L48.38 15.55Q48.22 13.92 48.04 12.65Q47.86 11.38 47.65 10.51Q47.44 9.63 47.19 9.18Q46.93 8.72 46.63 8.72L46.63 8.72Q46.48 8.72 46.25 8.94Q46.02 9.16 45.76 9.76Q45.50 10.35 45.22 11.37Q44.94 12.40 44.68 13.99L44.68 13.99Q44.61 14.44 44.26 14.67Q43.90 14.91 43.38 14.91L43.38 14.91Q42.79 14.91 42.56 14.72Q42.33 14.53 42.30 14.09L42.30 14.09Q42.26 13.31 42.15 12.54Q42.04 11.78 41.87 11.08Q41.71 10.38 41.51 9.79Q41.31 9.20 41.09 8.76Q40.86 8.32 40.63 8.07Q40.39 7.83 40.17 7.83L40.17 7.83Q39.88 7.83 39.60 8.24Q39.33 8.65 39.11 9.40Q38.89 10.15 38.77 11.20Q38.64 12.26 38.64 13.56L38.64 13.56Q38.64 13.78 38.65 14.00Q38.66 14.21 38.66 14.45L38.66 14.45Q38.66 14.80 38.55 15.02Q38.44 15.25 38.23 15.38Q38.03 15.50 37.76 15.55Q37.49 15.60 37.17 15.60L37.17 15.60Q36.88 15.60 36.70 15.56Q36.53 15.52 36.43 15.43Q36.34 15.35 36.30 15.22Q36.27 15.08 36.26 14.91ZM60.88 15.75L60.88 15.75Q60.88 15.36 60.85 14.74Q60.82 14.12 60.77 13.37Q60.73 12.62 60.67 11.78Q60.61 10.93 60.54 10.10Q60.47 9.27 60.40 8.49Q60.34 7.71 60.28 7.08L60.28 7.08Q60.19 6.18 60.02 5.75Q59.86 5.33 59.48 5.33L59.48 5.33Q59.13 5.33 59.02 5.53Q58.91 5.73 58.89 6.02Q58.88 6.32 58.88 6.66Q58.89 7.01 58.78 7.30Q58.66 7.59 58.36 7.79Q58.05 7.99 57.42 7.99L57.42 7.99Q56.98 7.99 56.66 7.62Q56.34 7.25 56.34 6.55L56.34 6.55Q56.34 5.57 56.92 4.76Q57.50 3.96 58.56 3.39Q59.61 2.82 61.10 2.51Q62.59 2.19 64.41 2.19L64.41 2.19Q65.71 2.19 66.81 2.48Q67.91 2.77 68.71 3.28Q69.52 3.79 69.97 4.48Q70.43 5.18 70.43 6L70.43 6Q70.43 6.93 69.89 7.77Q69.35 8.61 68.41 9.32Q67.46 10.02 66.19 10.54Q64.91 11.06 63.45 11.36L63.45 11.36Q63.04 11.43 63.04 11.86L63.04 11.86Q63.04 12.15 63.08 12.59Q63.12 13.03 63.16 13.51Q63.20 13.99 63.24 14.46Q63.28 14.93 63.28 15.29L63.28 15.29Q63.28 15.95 62.98 16.23Q62.67 16.51 62.07 16.51L62.07 16.51Q61.51 16.51 61.20 16.32Q60.88 16.13 60.88 15.75ZM68.00 6.34L68.00 6.34Q68.00 5.94 67.66 5.58Q67.32 5.21 66.75 4.93Q66.18 4.65 65.42 4.49Q64.66 4.32 63.83 4.32L63.83 4.32Q63.42 4.32 63.15 4.35Q62.87 4.38 62.71 4.45Q62.54 4.52 62.48 4.63Q62.41 4.75 62.41 4.92L62.41 4.92Q62.41 5.04 62.45 5.47Q62.48 5.89 62.54 6.46Q62.60 7.02 62.67 7.63Q62.73 8.25 62.80 8.74L62.80 8.74Q62.84 9.11 62.90 9.22Q62.96 9.34 63.11 9.34L63.11 9.34Q63.50 9.34 64.02 9.21Q64.54 9.07 65.08 8.84Q65.63 8.61 66.15 8.31Q66.67 8.02 67.08 7.68Q67.50 7.35 67.75 7.00Q68.00 6.66 68.00 6.34ZM81.15 11.84L81.15 11.84Q81.49 11.54 81.82 11.54L81.82 11.54Q82.01 11.54 82.16 11.64Q82.31 11.73 82.50 11.93L82.50 11.93Q82.68 12.20 82.75 12.37Q82.83 12.54 82.83 12.70L82.83 12.70Q82.83 13.05 82.48 13.37L82.48 13.37Q81.91 13.84 81.26 14.21Q80.60 14.58 79.89 14.84Q79.17 15.09 78.41 15.23Q77.65 15.36 76.90 15.36L76.90 15.36Q75.95 15.36 75.12 15.12Q74.29 14.88 73.63 14.44Q72.98 13.99 72.54 13.37Q72.09 12.74 71.91 11.95L71.91 11.95Q71.80 11.63 71.71 11.53Q71.63 11.43 71.43 11.43L71.43 11.43Q70.99 11.43 70.76 11.21Q70.52 11.00 70.52 10.61L70.52 10.61Q70.52 10.44 70.55 10.39L70.55 10.39L70.57 10.16Q70.63 9.74 70.80 9.55Q70.97 9.36 71.33 9.36L71.33 9.36L71.51 9.36Q72 9.36 72.20 8.91L72.20 8.91Q72.56 8.10 73.13 7.43Q73.69 6.76 74.39 6.29Q75.09 5.81 75.90 5.55Q76.70 5.29 77.53 5.29L77.53 5.29Q78.40 5.29 79.15 5.54Q79.91 5.79 80.47 6.23Q81.04 6.68 81.36 7.28Q81.68 7.88 81.68 8.57L81.68 8.57Q81.68 9.05 81.49 9.45Q81.30 9.84 80.95 10.14Q80.60 10.44 80.10 10.63Q79.61 10.82 78.97 10.88L78.97 10.88L74.91 11.29Q74.67 11.29 74.53 11.40Q74.38 11.52 74.38 11.72L74.38 11.72Q74.38 12.02 74.61 12.30Q74.84 12.59 75.22 12.80Q75.60 13.02 76.10 13.15Q76.59 13.28 77.12 13.28L77.12 13.28Q77.63 13.28 78.16 13.18Q78.69 13.08 79.21 12.89Q79.73 12.70 80.23 12.44Q80.72 12.18 81.15 11.84ZM78.54 8.81L78.54 8.81Q78.71 8.78 78.84 8.64Q78.97 8.51 78.97 8.31L78.97 8.31Q78.97 8.13 78.84 7.98Q78.71 7.83 78.49 7.71Q78.27 7.58 77.98 7.51Q77.68 7.44 77.36 7.44L77.36 7.44Q76.88 7.44 76.37 7.58Q75.87 7.72 75.46 7.95Q75.05 8.18 74.79 8.46Q74.53 8.73 74.53 9L74.53 9Q74.53 9.27 74.86 9.27L74.86 9.27Q75.06 9.27 75.50 9.22Q75.95 9.18 76.49 9.11Q77.03 9.05 77.58 8.96Q78.13 8.88 78.54 8.81ZM90.93 4.16L90.93 4.16Q91.57 4.16 92.17 4.36Q92.77 4.56 93.22 4.91Q93.68 5.26 93.96 5.75Q94.23 6.25 94.23 6.84L94.23 6.84Q94.23 7.09 94.12 7.32Q94.01 7.55 93.82 7.72Q93.63 7.89 93.39 7.99Q93.15 8.09 92.89 8.09L92.89 8.09Q92.87 8.09 92.85 8.09Q92.84 8.10 92.81 8.10L92.81 8.10Q92.79 8.11 92.77 8.11L92.77 8.11L92.81 9.05Q92.86 10.72 93.29 11.50Q93.71 12.27 94.41 12.27L94.41 12.27Q94.65 12.27 94.85 12.22Q95.04 12.18 95.21 12.11Q95.38 12.05 95.53 12Q95.68 11.95 95.84 11.95L95.84 11.95Q96.11 11.95 96.31 12.19Q96.52 12.42 96.52 12.75L96.52 12.75Q96.52 13.08 96.26 13.41Q96.01 13.73 95.60 14.00Q95.19 14.26 94.68 14.43Q94.16 14.59 93.63 14.59L93.63 14.59Q92.72 14.59 92.03 13.83Q91.34 13.08 91.04 11.61L91.04 11.61Q90.97 11.38 90.86 11.38L90.86 11.38Q90.71 11.38 90.61 11.52L90.61 11.52Q89.45 12.98 88.14 13.72Q86.82 14.45 85.55 14.45L85.55 14.45Q84.95 14.45 84.47 14.27Q83.99 14.10 83.65 13.78Q83.32 13.45 83.14 12.99Q82.96 12.53 82.96 11.95L82.96 11.95Q82.96 11.14 83.31 10.25Q83.67 9.36 84.28 8.50Q84.89 7.63 85.69 6.84Q86.50 6.06 87.38 5.46Q88.27 4.86 89.18 4.51Q90.09 4.16 90.93 4.16ZM90.54 8.21L90.54 8.21Q90.75 7.82 90.93 7.63Q91.10 7.45 91.43 7.39L91.43 7.39Q91.69 7.36 91.69 7.23L91.69 7.23Q91.69 7.14 91.62 7.03L91.62 7.03Q91.39 6.73 91.15 6.50Q90.90 6.27 90.49 6.27L90.49 6.27Q90.05 6.27 89.50 6.53Q88.95 6.79 88.38 7.21Q87.81 7.64 87.26 8.19Q86.72 8.73 86.30 9.30Q85.88 9.88 85.62 10.44Q85.36 11.00 85.36 11.45L85.36 11.45Q85.36 11.85 85.58 12.07Q85.79 12.29 86.17 12.29L86.17 12.29Q87.13 12.29 88.27 11.27Q89.40 10.25 90.54 8.21ZM101.03 4.73L101.03 4.73Q101.64 4.73 102.21 4.91Q102.79 5.09 103.22 5.38Q103.66 5.68 103.93 6.06Q104.20 6.45 104.20 6.84L104.20 6.84Q104.20 7.10 104.10 7.34Q103.99 7.58 103.82 7.76Q103.64 7.95 103.42 8.06Q103.20 8.17 102.95 8.17L102.95 8.17Q102.68 8.17 102.46 7.96Q102.23 7.76 101.98 7.51Q101.73 7.25 101.42 7.05Q101.11 6.84 100.68 6.84L100.68 6.84Q100.25 6.84 99.91 7.04Q99.57 7.24 99.35 7.60Q99.12 7.96 98.99 8.44Q98.87 8.93 98.87 9.50L98.87 9.50Q98.87 11.14 99.49 12.01Q100.11 12.87 101.27 12.87L101.27 12.87Q101.82 12.87 102.22 12.69Q102.61 12.52 102.91 12.30Q103.21 12.09 103.45 11.92Q103.70 11.74 103.96 11.74L103.96 11.74Q104.10 11.74 104.24 11.83Q104.38 11.92 104.49 12.05Q104.60 12.19 104.68 12.35Q104.75 12.52 104.75 12.68L104.75 12.68Q104.75 13.07 104.37 13.48Q103.99 13.89 103.39 14.22Q102.80 14.55 102.06 14.77Q101.33 14.98 100.64 14.98L100.64 14.98Q99.71 14.98 98.94 14.62Q98.17 14.26 97.61 13.62Q97.04 12.98 96.73 12.09Q96.42 11.20 96.42 10.13L96.42 10.13Q96.42 8.95 96.77 7.97Q97.11 6.98 97.73 6.26Q98.34 5.54 99.19 5.14Q100.03 4.73 101.03 4.73ZM104.72 3.12L104.72 3.12Q104.72 1.85 106.36 1.85L106.36 1.85Q106.64 1.85 106.85 2.00Q107.06 2.16 107.10 2.43L107.10 2.43Q107.20 3.14 107.29 3.84Q107.37 4.55 107.44 5.42Q107.52 6.29 107.60 7.44Q107.67 8.58 107.77 10.16L107.77 10.16Q107.77 10.32 107.82 10.39Q107.87 10.46 107.94 10.46L107.94 10.46Q108.05 10.46 108.15 10.25L108.15 10.25Q108.55 9.38 109.04 8.68Q109.54 7.98 110.10 7.49Q110.66 7.01 111.29 6.76Q111.91 6.50 112.57 6.50L112.57 6.50Q113.44 6.50 114.14 7.00Q114.84 7.49 115.34 8.39Q115.83 9.29 116.10 10.58Q116.37 11.86 116.37 13.44L116.37 13.44Q116.37 13.88 116.30 14.15Q116.24 14.43 116.09 14.59Q115.93 14.75 115.66 14.82Q115.39 14.88 115.00 14.88L115.00 14.88Q114.45 14.88 114.21 14.67Q113.96 14.46 113.96 14.02L113.96 14.02Q113.96 12.91 113.82 11.94Q113.67 10.96 113.41 10.22Q113.16 9.48 112.81 9.05Q112.46 8.61 112.07 8.61L112.07 8.61Q111.16 8.61 110.27 10.08Q109.37 11.54 108.40 14.50L108.40 14.50Q108.30 14.77 108.19 14.94Q108.07 15.12 107.91 15.22Q107.75 15.33 107.53 15.37Q107.31 15.41 107.00 15.41L107.00 15.41Q106.38 15.41 106.12 15.18Q105.86 14.94 105.83 14.40L105.83 14.40Q105.76 12.36 105.58 10.51Q105.40 8.65 105.21 7.14Q105.01 5.64 104.87 4.59Q104.72 3.54 104.72 3.12Z" transform="translate(36, 10.799)"></path></svg>